<svg xmlns="http://www.w3.org/2000/svg" width="574.42" height="228.07" viewBox="0 0 574.42 228.07">
  <defs>
    <style>
      .cls-1 {
        fill: #0075ea;
      }

      .cls-2 {
        fill: #a6bf48;
      }

      .cls-3 {
        fill: #66a662;
      }

      .cls-4 {
        fill: #008c84;
        opacity: 0.3;
      }

      .cls-5 {
        fill: #8e8e8e;
      }
    </style>
  </defs>
  <title>Asset 1</title>
  <g id="Layer_2" data-name="Layer 2">
    <g id="Layer_1-2" data-name="Layer 1">
      <g>
        <g>
          <path class="cls-1" d="M70.82,116.81v9.44a34,34,0,0,1-2.68,13.41,37.17,37.17,0,0,1-7.4,11.27,35.7,35.7,0,0,1-11.05,7.83,32.37,32.37,0,0,1-13.63,2.9,49,49,0,0,1-12.66-1.72,29.91,29.91,0,0,1-11.59-6,33.2,33.2,0,0,1-8.48-11.05Q0,136.12,0,125.6V41.48a37.22,37.22,0,0,1,2.58-14,32.84,32.84,0,0,1,7.3-11.16A34,34,0,0,1,21.14,9,37.88,37.88,0,0,1,35.63,6.28q15.45,0,25.11,10.09a35.94,35.94,0,0,1,7.4,11.7,39.54,39.54,0,0,1,2.68,14.7v8.58H48.93v-7.3a17.73,17.73,0,0,0-3.65-11.16,11.83,11.83,0,0,0-9.87-4.72q-8.16,0-10.84,5T21.89,46V124.1a20.23,20.23,0,0,0,2.9,11.16q2.9,4.51,10.41,4.51a15.84,15.84,0,0,0,4.61-.75,13.74,13.74,0,0,0,4.61-2.47,13.07,13.07,0,0,0,3.22-4.72,19.13,19.13,0,0,0,1.29-7.51v-7.51Z"/>
          <g>
            <path class="cls-2" d="M195.89,12.29c-2.62-1.56-5.6-2.78-8.35-2.51s-5.1,2.42-4.68,5.18c.32,2.14,2.17,4.11,4.24,5.24a7.31,7.31,0,0,0,1.1.48,3.4,3.4,0,0,1,1.39,5.46,23.42,23.42,0,0,1-11.65,7.38,55.61,55.61,0,0,0-7.16-3.89,14.77,14.77,0,0,1,0-8.77,2.2,2.2,0,0,1,3.37-1.21l.47.3A6.22,6.22,0,0,0,178.3,21a2.84,2.84,0,0,0,2.26-3.69,8.08,8.08,0,0,0-3.48-4,21.36,21.36,0,0,0-7.87-3.24,9.23,9.23,0,0,0-5.56.32A3.06,3.06,0,0,0,162,14.53a5.1,5.1,0,0,0,3.69,2.22,4.64,4.64,0,0,0,.76,0,2.17,2.17,0,0,1,2,3,14.92,14.92,0,0,1-5.44,7,56.27,56.27,0,0,0-10.68-2,20.94,20.94,0,0,1-3.84-11,3.09,3.09,0,0,1,3.86-3.21l.77.16c1.82.33,3.84.48,5.42-.33a4,4,0,0,0,1.21-5.94c-1.38-1.9-3.95-3-6.51-3.63a29.94,29.94,0,0,0-11.92-.5c-2.69.43-5.43,1.32-7.17,3.09s-2.1,4.59-.23,6.25c1.45,1.28,3.85,1.57,5.92,1.16a6.54,6.54,0,0,0,1-.3A3,3,0,0,1,145,13.5,21.08,21.08,0,0,1,141.41,25a55.92,55.92,0,0,0-10.3,2.14,12.56,12.56,0,0,1-4.75-5.65,1.87,1.87,0,0,1,1.53-2.63l.47-.06a5.28,5.28,0,0,0,3-1.31,2.41,2.41,0,0,0-.54-3.63,6.85,6.85,0,0,0-4.46-.72,18.12,18.12,0,0,0-6.89,2.19,7.83,7.83,0,0,0-3.44,3.24,2.6,2.6,0,0,0,1.16,3.6,4.33,4.33,0,0,0,3.61-.57,4,4,0,0,0,.52-.38,1.84,1.84,0,0,1,2.94.83,12.64,12.64,0,0,1,.27,7.59,55.76,55.76,0,0,0-9.22,5.27,20.94,20.94,0,0,1-10-6,3.09,3.09,0,0,1,.89-4.94q.35-.17.69-.37c1.6-.92,3.25-2.1,3.94-3.74A4,4,0,0,0,108,14.53c-2.28-.57-4.95.25-7.33,1.4a29.94,29.94,0,0,0-9.45,7.28c-1.78,2.07-3.32,4.5-3.51,7s1.34,4.87,3.84,4.93c1.94.05,4-1.27,5.28-2.92a6.53,6.53,0,0,0,.59-.89,3,3,0,0,1,5-.38A21.08,21.08,0,0,1,107.07,42a55.73,55.73,0,0,0-7.39,9.67,14.31,14.31,0,0,1-3.13-1.1,1.87,1.87,0,0,1-.52-3l.32-.35a5.28,5.28,0,0,0,1.47-2.94,2.41,2.41,0,0,0-2.75-2.43,6.86,6.86,0,0,0-3.88,2.32,18.12,18.12,0,0,0-3.87,6.1,7.83,7.83,0,0,0-.55,4.69A2.6,2.6,0,0,0,90,57a4.33,4.33,0,0,0,2.4-2.75,4,4,0,0,0,.15-.63,1.84,1.84,0,0,1,2.78-1.26,14.39,14.39,0,0,1,2.76,2.21,55.9,55.9,0,0,0-5,13.23A17,17,0,0,1,84.49,69a2.47,2.47,0,0,1-2-3.48c.09-.19.16-.39.24-.58a7,7,0,0,0,.49-4.32,3.19,3.19,0,0,0-4.51-1.78c-1.69.82-2.91,2.69-3.77,4.63a24,24,0,0,0-2,9.32,10.34,10.34,0,0,0,1.44,6.07,3.43,3.43,0,0,0,4.89,1A5.72,5.72,0,0,0,81,75.38a5.21,5.21,0,0,0-.1-.85,2.44,2.44,0,0,1,2.88-2.81,17.12,17.12,0,0,1,8.09,3.95,56.28,56.28,0,0,0,.36,13.13A16,16,0,0,1,88,90.5a2.14,2.14,0,0,1-2.66-2.25c0-.18,0-.36,0-.54A6.05,6.05,0,0,0,84.45,84a2.77,2.77,0,0,0-4.21-.11,7.86,7.86,0,0,0-1.7,4.89A20.79,20.79,0,0,0,79.64,97a9,9,0,0,0,3,4.53,3,3,0,0,0,4.3-.6A5,5,0,0,0,87,96.78a4.53,4.53,0,0,0-.33-.66A2.11,2.11,0,0,1,88.18,93,16.18,16.18,0,0,1,93,93a55.66,55.66,0,0,0,4,11.54,20.94,20.94,0,0,1-7.6,8.81,3.09,3.09,0,0,1-4.71-1.73c-.07-.25-.15-.5-.24-.74-.63-1.73-1.5-3.57-3-4.53a4,4,0,0,0-5.75,1.92c-1,2.15-.62,4.92.11,7.46a29.94,29.94,0,0,0,5.53,10.57c1.72,2.12,3.86,4,6.26,4.66s5-.48,5.53-2.92c.39-1.9-.57-4.12-2-5.71a6.51,6.51,0,0,0-.77-.74,3,3,0,0,1,.5-5,21.07,21.07,0,0,1,11.72-2.66c.85,1.14,1.72,2.27,2.67,3.37a56.38,56.38,0,0,0,6.52,6.41,18.4,18.4,0,0,1-2.34,4.35,2.44,2.44,0,0,1-4,0q-.18-.25-.38-.49a6.9,6.9,0,0,0-3.46-2.55,3.15,3.15,0,0,0-3.76,3c-.13,1.85.87,3.82,2.1,5.51a23.68,23.68,0,0,0,7,6.36,10.23,10.23,0,0,0,5.91,1.77,3.39,3.39,0,0,0,3.32-3.67,5.65,5.65,0,0,0-3-3.71,5.17,5.17,0,0,0-.78-.34,2.41,2.41,0,0,1-1-3.86,18.46,18.46,0,0,1,4.11-3.46,55.63,55.63,0,0,0,9.82,5.5c.82,5-.6,12.6-1.73,16.58a3.09,3.09,0,0,1-4.72,1.7c-.22-.15-.44-.29-.66-.42-1.59-.93-3.44-1.77-5.21-1.54a4,4,0,0,0-3.17,5.17c.64,2.26,2.69,4.16,4.88,5.64a29.94,29.94,0,0,0,11,4.54c2.68.51,5.55.62,7.79-.45s3.54-3.6,2.35-5.79c-.92-1.7-3.08-2.79-5.17-3.11a6.52,6.52,0,0,0-1.07-.07,3,3,0,0,1-2.84-4.16c1.62-4.06,5.55-11.33,9.48-14.64a56.36,56.36,0,0,0,9.52,1.14,16.94,16.94,0,0,1,1.13,5,2.28,2.28,0,0,1-2.85,2.37l-.57-.12a6.44,6.44,0,0,0-4,.25,3,3,0,0,0-.89,4.39,8.37,8.37,0,0,0,4.81,2.69,22.13,22.13,0,0,0,8.81.37,9.56,9.56,0,0,0,5.3-2.28,3.17,3.17,0,0,0,.17-4.62,5.28,5.28,0,0,0-4.38-.86,4.82,4.82,0,0,0-.76.22,2.25,2.25,0,0,1-3-2.17,17.08,17.08,0,0,1,1-5.33,56,56,0,0,0,13.25-2.28,17,17,0,0,1,5.32,6.82,2.46,2.46,0,0,1-2,3.46l-.62.09a7,7,0,0,0-4,1.73,3.18,3.18,0,0,0,.71,4.78c1.55,1.05,3.77,1.17,5.87.95a23.87,23.87,0,0,0,9.07-2.88,10.31,10.31,0,0,0,4.53-4.27,3.42,3.42,0,0,0-1.53-4.74,5.7,5.7,0,0,0-4.75.75,5.19,5.19,0,0,0-.69.51,2.43,2.43,0,0,1-3.87-1.09,17.07,17.07,0,0,1-.63-8.92,55.94,55.94,0,0,0,11.58-7.21,14.29,14.29,0,0,1,2.58,2.12,1.87,1.87,0,0,1-.54,3l-.42.22a5.28,5.28,0,0,0-2.38,2.26,2.41,2.41,0,0,0,1.75,3.23,6.86,6.86,0,0,0,4.44-.85,18.13,18.13,0,0,0,5.72-4.41,7.83,7.83,0,0,0,2.12-4.22,2.6,2.6,0,0,0-2.32-3,4.33,4.33,0,0,0-3.2,1.77,4,4,0,0,0-.36.54,1.84,1.84,0,0,1-3,.23,14.4,14.4,0,0,1-1.85-3,56.11,56.11,0,0,0,7.56-8.37A24.62,24.62,0,0,1,207,116.29a3.66,3.66,0,0,1,1,5.87c-.22.22-.42.45-.62.69-1.41,1.67-2.78,3.66-2.87,5.77a4.73,4.73,0,0,0,5.39,4.77c2.77-.29,5.42-2.28,7.6-4.54a35.52,35.52,0,0,0,7.58-12c1.15-3,1.87-6.36,1.08-9.19s-3.47-4.88-6.28-3.94c-2.18.73-3.89,3-4.7,5.4a7.71,7.71,0,0,0-.3,1.23,3.61,3.61,0,0,1-5.45,2.46,24.79,24.79,0,0,1-10-11,56,56,0,0,0,2.88-9.27,18.15,18.15,0,0,1,6-.34,2.47,2.47,0,0,1,2,3.48c-.09.19-.16.39-.24.58a7,7,0,0,0-.49,4.32,3.19,3.19,0,0,0,4.51,1.78c1.69-.82,2.91-2.69,3.77-4.63a24,24,0,0,0,2-9.32,10.34,10.34,0,0,0-1.44-6.07,3.43,3.43,0,0,0-4.89-1,5.71,5.71,0,0,0-1.73,4.5,5.24,5.24,0,0,0,.1.85,2.44,2.44,0,0,1-2.88,2.81,18.29,18.29,0,0,1-5.85-2.28,56.34,56.34,0,0,0,.15-11.6,20.94,20.94,0,0,1,10.16-5.69,3.09,3.09,0,0,1,3.83,3.24c0,.26,0,.52,0,.78,0,1.84.19,3.87,1.27,5.28a4,4,0,0,0,6.06.16c1.64-1.69,2.26-4.41,2.45-7a29.94,29.94,0,0,0-1.58-11.83c-.9-2.58-2.24-5.12-4.28-6.52s-4.89-1.27-6.19.86c-1,1.65-.87,4.06-.11,6a6.52,6.52,0,0,0,.48,1,3,3,0,0,1-2.18,4.54,21.08,21.08,0,0,1-11.91-1.5,55.59,55.59,0,0,0-4.33-10.59,17,17,0,0,1,3.8-3.49,2.28,2.28,0,0,1,3.48,1.28c.05.19.11.37.18.55A6.44,6.44,0,0,0,206.73,56,2.94,2.94,0,0,0,211,54.53,8.36,8.36,0,0,0,210.9,49a22.12,22.12,0,0,0-4.09-7.81,9.55,9.55,0,0,0-4.62-3.45,3.17,3.17,0,0,0-4.08,2.16,5.28,5.28,0,0,0,1.45,4.22,4.8,4.8,0,0,0,.57.54,2.25,2.25,0,0,1-.37,3.7,17.08,17.08,0,0,1-5.1,1.81,56.45,56.45,0,0,0-4.59-6.14c-.75-.87-1.53-1.7-2.32-2.52A23.26,23.26,0,0,1,192.38,29,3.45,3.45,0,0,1,198,29c.17.24.35.47.54.69,1.32,1.58,2.94,3.17,4.88,3.61a4.45,4.45,0,0,0,5.31-4.22c.19-2.62-1.23-5.4-3-7.79A33.46,33.46,0,0,0,195.89,12.29Z"/>
            <g>
              <path class="cls-3" d="M115.19,57.83c1.51,1.24,1.63,3.75,1.38,6.71-.15,1.48-.35,3.12-.64,4.84s-.58,3.57-.91,5.5-.6,3.77-.92,5.5-.62,3.34-1,4.79c-.72,2.88-1.65,5.21-3.48,5.9s-4.22-.66-6.18-4a19.13,19.13,0,0,1-2.19-6.3,24.95,24.95,0,0,1,2.64-15.84A19.13,19.13,0,0,1,108,59.64C111,57.09,113.74,56.63,115.19,57.83Z"/>
              <path class="cls-3" d="M131.72,117.62c-.76,1.26-2.84,1.64-5.59.84a21.71,21.71,0,0,1-13.91-15.37c-.52-2.81.06-4.84,1.4-5.47s3.2.12,5.19,1.58a45.6,45.6,0,0,1,6.44,6.09,45.6,45.6,0,0,1,5.42,7C131.92,114.43,132.5,116.33,131.72,117.62Z"/>
              <path class="cls-3" d="M178.09,107.39c1,.91,1,2.84-.2,5.17a20,20,0,0,1-16.17,9.94c-2.62,0-4.35-.85-4.71-2.15s.63-2.87,2.27-4.43a51.08,51.08,0,0,1,13.84-8.51C175.25,106.66,177.07,106.46,178.09,107.39Z"/>
              <ellipse class="cls-3" cx="164.07" cy="75.68" rx="20.18" ry="7.99" transform="translate(54.62 219.44) rotate(-77.48)"/>
              <path class="cls-3" d="M131.5,74.27c1.67-.52,3.66.67,5.69,2.74a46,46,0,0,1,6.19,8.48,46,46,0,0,1,4.48,9.5c.85,2.78.94,5.1-.32,6.31s-3.65,1-6.49-.62a26.61,26.61,0,0,1-12.11-20.41C128.87,77,129.86,74.78,131.5,74.27Z"/>
              <path class="cls-3" d="M154.43,111.82c.15.75-.53,1.63-1.92,2.26a10.58,10.58,0,0,1-10.81-2c-1.08-1.08-1.4-2.14-1-2.79s1.43-.85,2.69-.82a40.79,40.79,0,0,1,8.81,1.63C153.4,110.52,154.28,111,154.43,111.82Z"/>
              <path class="cls-3" d="M121.27,79.89c1.5.08,2.55,3,2.94,6.49s0,6.58-1.48,7-3.44-2.42-3.87-6.39S119.8,79.81,121.27,79.89Z"/>
              <path class="cls-3" d="M146.4,46.9c.52,1.42-.42,3.17-2.06,5a45,45,0,0,1-6.69,5.82,45,45,0,0,1-7.52,4.69c-2.24,1-4.19,1.41-5.4.5s-1.34-3-.27-5.63A21.78,21.78,0,0,1,141.09,45C143.93,44.75,145.89,45.52,146.4,46.9Z"/>
              <path class="cls-3" d="M134.75,37.47c.23.77-.33,1.67-1.24,2.6A26.17,26.17,0,0,1,129.87,43a26.19,26.19,0,0,1-4,2.39c-1.19.53-2.23.74-2.87.26s-.72-1.59-.13-3A11.29,11.29,0,0,1,132,36.3C133.5,36.24,134.53,36.71,134.75,37.47Z"/>
              <path class="cls-3" d="M172,46.64c-.93,1-2.68.95-4.76.55a67.36,67.36,0,0,1-7.21-2,67.41,67.41,0,0,1-7-2.53c-1.92-.88-3.37-1.87-3.55-3.21s1.08-2.75,3.58-3.63a13.86,13.86,0,0,1,4.49-.71,18.27,18.27,0,0,1,10.42,3.33,13.84,13.84,0,0,1,3.25,3.18C172.7,43.77,172.88,45.69,172,46.64Z"/>
              <path class="cls-3" d="M189.16,78.18c-1.06-.15-1.84-1.31-2.53-2.85a51,51,0,0,1-1.94-5.65,51,51,0,0,1-1.49-5.78c-.28-1.66-.27-3.05.54-3.77s2.29-.5,4,.75a13.78,13.78,0,0,1,4.35,14.47C191.35,77.33,190.19,78.33,189.16,78.18Z"/>
              <path class="cls-3" d="M187.06,88.78c.79,0,1.51.87,1.88,2.34a11.57,11.57,0,0,1-3.33,10.51c-1.15,1-2.24,1.27-2.89.83s-.8-1.5-.67-2.81a30.17,30.17,0,0,1,2.84-9C185.54,89.55,186.26,88.77,187.06,88.78Z"/>
              <path class="cls-3" d="M157.63,54.86c1.79,1.71-.41,6.91-5.32,11.18s-10.36,5.74-11.81,3.73,1.34-6.54,5.9-10.52S155.83,53.14,157.63,54.86Z"/>
              <path class="cls-3" d="M178.6,82.58c1.17.14,2.13,1.57,2.35,3.91a16,16,0,0,1-8.46,14.72c-2.14,1-3.85.87-4.57-.06s-.45-2.52.25-4.31a49.66,49.66,0,0,1,3.12-6.1A49.67,49.67,0,0,1,175,85C176.19,83.46,177.39,82.43,178.6,82.58Z"/>
              <path class="cls-3" d="M152.51,124.24c.1,1-.84,2.1-2.54,2.86a15.16,15.16,0,0,1-13.33-1.31c-1.52-1.07-2.24-2.29-1.94-3.3s1.51-1.64,3.16-2a25.19,25.19,0,0,1,11.93,1.17C151.35,122.34,152.42,123.19,152.51,124.24Z"/>
            </g>
            <path class="cls-4" d="M171.87,113.06c.51,2.6-.39,5.41-3,8s-6.93,4.95-12.73,6.12a40.67,40.67,0,0,1-9.61.69,48,48,0,0,1-11-1.88,52.05,52.05,0,0,1-35.43-36.17,48,48,0,0,1-1.65-11.05,40.68,40.68,0,0,1,.89-9.6c1.29-5.77,3.69-10.06,6.38-12.6s5.52-3.4,8.11-2.84,4.84,2.4,6.86,4.75a87.12,87.12,0,0,1,6,8.34c4,6.16,8.68,12.94,14.16,18.55S153,95.87,159,100a87.17,87.17,0,0,1,8.21,6.14C169.57,108.18,171.36,110.42,171.87,113.06Z"/>
          </g>
          <g>
            <path class="cls-1" d="M303.66,7.57l-31.33,152.8H253L221.89,7.57h23.18l17.38,106.66h.43L280.48,7.57Z"/>
            <path class="cls-1" d="M313.1,160.37V7.57H335v152.8Z"/>
            <path class="cls-1" d="M351.94,160.37V7.57h32.41q18.88,0,28.65,10.3t9.77,29.19v71.47q0,21.46-10.41,31.66t-29.94,10.19Zm21.89-132.2v111.6h10.09q9.22,0,13.09-4.61t3.86-14.49V47.06q0-9-3.65-13.95t-13.31-4.94Z"/>
          </g>
          <g>
            <path class="cls-2" d="M439,29c18.24,0,22.32-8.8,26-18.89h15.88V160.37H457.24V45.77H439Z"/>
            <path class="cls-2" d="M574.42,123c0,25.32-11.59,39.06-36.06,39.06-23.18,0-35.2-13.74-35.2-37.77v-3.86h22.32v5.37c0,10.73,4.72,14.81,12.23,14.81,8.37,0,13.09-4.08,13.09-18.46V94.7c-4.08,8.58-11.37,13.31-21.89,13.31-17.38,0-26.18-12.23-26.18-34.34V46.2c0-24,12.66-37.77,35.84-37.77s35.84,13.74,35.84,37.77ZM550.81,71.74v-27c0-10.73-4.72-14.59-12.23-14.59S526.34,34,526.34,44.69v27c0,10.73,4.72,14.81,12.23,14.81S550.81,82.47,550.81,71.74Z"/>
          </g>
        </g>
        <g>
          <path class="cls-5" d="M145.58,191.87v5.75h-10.3v29.75h-6V197.62h-10.3v-5.75Z"/>
          <path class="cls-5" d="M196.13,227.37H189l-7.2-14h-8.15v14h-6v-35.5h15.6q5.7,0,8.7,3a10.45,10.45,0,0,1,3,7.8,11,11,0,0,1-1.75,6.27,9.44,9.44,0,0,1-5.2,3.73Zm-8.7-21a5.72,5.72,0,0,0,0-7.5,5.63,5.63,0,0,0-4.15-1.4h-9.6v10.3h9.6A5.63,5.63,0,0,0,187.43,206.37Z"/>
          <path class="cls-5" d="M221,227.37h-6.4l13.75-35.5h6.45l13.8,35.5H242l-2.56-6.85H223.54Zm10.54-28h-.08L225.6,215h11.77Z"/>
          <path class="cls-5" d="M285,222.27a11.41,11.41,0,0,0,6.75-2,10,10,0,0,0,3.85-5.52l5.85,2.05a15.44,15.44,0,0,1-6.1,8.25,17.93,17.93,0,0,1-10.35,3,16.94,16.94,0,0,1-12.77-5.18q-5-5.17-5-13.32t5-13.3A17,17,0,0,1,285,191.12a17.93,17.93,0,0,1,10.35,3,15.44,15.44,0,0,1,6.1,8.25l-5.85,2a10,10,0,0,0-3.85-5.52,11.41,11.41,0,0,0-6.75-2,10.54,10.54,0,0,0-8.33,3.43q-3,3.43-3,9.23t3,9.25A10.5,10.5,0,0,0,285,222.27Z"/>
          <path class="cls-5" d="M356.53,227.37H349l-11.39-16.25-6.16,6.5v9.75h-6v-35.5h6V210l16.45-18.09h8l-14,14.76Z"/>
          <path class="cls-5" d="M402.63,221.77v5.6h-25v-35.5h25v5.6h-18.9v9.1h18v5.6h-18v9.6Z"/>
          <path class="cls-5" d="M455.48,227.37h-7.1l-7.2-14H433v14h-6v-35.5h15.6q5.7,0,8.7,3a10.45,10.45,0,0,1,3,7.8,11.05,11.05,0,0,1-1.75,6.27,9.44,9.44,0,0,1-5.2,3.73Zm-8.7-21a5.72,5.72,0,0,0,0-7.5,5.63,5.63,0,0,0-4.15-1.4H433v10.3h9.6A5.63,5.63,0,0,0,446.78,206.37Z"/>
        </g>
      </g>
    </g>
  </g>
</svg>
